<svg width="84" height="84" viewBox="0 0 84 84" fill="none" xmlns="http://www.w3.org/2000/svg">
  <g clip-path="url(#clip0_1_688)">
  <path fill-rule="evenodd" clip-rule="evenodd" d="M27.174 25.284C26.838 11.55 38.766 6.09 48.93 9.702C61.572 14.196 73.92 35.28 57.96 60.942C68.376 33.768 57.498 18.312 46.62 14.406C38.43 11.508 29.484 15.12 27.174 25.284Z" fill="#BD7124"/>
  <path fill-rule="evenodd" clip-rule="evenodd" d="M54.81 35.028C65.982 44.562 55.566 70.98 41.16 74.004C27.384 76.86 12.348 56.406 25.956 48.3C17.766 56.112 27.594 73.374 41.37 70.728C53.802 65.562 60.648 46.032 54.81 35.028Z" fill="#BD7124"/>
  <path fill-rule="evenodd" clip-rule="evenodd" d="M44.856 42.336C37.338 35.322 28.938 43.092 32.508 49.896C22.554 58.884 37.842 70.098 46.536 52.164C37.506 75.348 18.018 58.422 29.946 48.636C23.31 39.06 39.438 30.282 44.856 42.336Z" fill="#42583D"/>
  <path fill-rule="evenodd" clip-rule="evenodd" d="M35.196 51.072C39.27 52.542 44.142 50.568 42.462 47.124C43.302 46.872 44.856 45.192 44.184 42.588C45.528 44.898 44.646 46.284 43.47 47.502C46.578 52.248 38.094 54.474 35.196 51.072Z" fill="#42583D"/>
  <path fill-rule="evenodd" clip-rule="evenodd" d="M29.19 24.444C36.078 30.324 57.162 24.612 49.938 44.31C53.76 25.914 31.626 34.734 29.19 24.444Z" fill="#BD7124"/>
  <path fill-rule="evenodd" clip-rule="evenodd" d="M29.904 26.628C31.374 30.618 34.272 30.744 34.608 32.97C35.112 36.54 41.79 38.01 45.36 37.212C47.166 36.792 48.426 34.86 49.182 32.424C48.762 35.406 47.376 37.338 45.486 38.304C42.714 39.732 34.314 37.59 33.474 33.684C33.18 32.046 29.694 31.29 29.904 26.628Z" fill="#BD7124"/>
  </g>
  <defs>
  <clipPath id="clip0_1_688">
  <rect width="84" height="84" fill="white"/>
  </clipPath>
  </defs>
  </svg>
